<?xml version="1.0" encoding="utf-8"?>
<!-- Generator: Adobe Illustrator 23.0.1, SVG Export Plug-In . SVG Version: 6.00 Build 0)  -->
<svg version="1.1" id="Слой_1" xmlns="http://www.w3.org/2000/svg" xmlns:xlink="http://www.w3.org/1999/xlink" x="0px" y="0px"
	 viewBox="0 0 70 70" style="enable-background:new 0 0 70 70;" xml:space="preserve">
<style type="text/css">
	.st0{fill:#FF5555;}
</style>
<path d="M34.8,3.2c6.8,0,13.3,2.1,18.8,6.2C54,9.7,54.7,9.6,55,9.2c0.2-0.2,0.2-0.5,0.2-0.7c0-0.3-0.2-0.5-0.4-0.7
	c-5.8-4.3-12.7-6.6-20-6.6c-6.6,0-13.1,1.9-18,5.2l-0.3,0.2V1c0-0.6-0.5-1-1-1s-1,0.5-1,1v7.6c0,0.4,0.2,0.7,0.6,0.9
	c0.4,0.2,0.8,0.1,1.1-0.1C20.8,5.5,27.8,3.2,34.8,3.2z"/>
<path d="M68.6,14.5H61c-0.4,0-0.7,0.2-0.9,0.6c-0.2,0.4-0.1,0.8,0.1,1.1c3.9,4.6,6.2,11.6,6.2,18.6c0,6.8-2.1,13.3-6.2,18.8
	C59.9,54,60,54.7,60.4,55s1.1,0.2,1.4-0.2c4.3-5.8,6.6-12.7,6.6-20c0-6.6-1.9-13.1-5.2-18L63,16.5h5.6c0.6,0,1-0.5,1-1
	C69.6,14.9,69.1,14.5,68.6,14.5z"/>
<path d="M54.1,69.6c0.6,0,1-0.5,1-1V61c0-0.4-0.2-0.7-0.6-0.9s-0.8-0.1-1.1,0.1c-4.6,3.9-11.6,6.2-18.6,6.2
	c-6.8,0-13.3-2.1-18.8-6.2C15.8,60,15.5,60,15.3,60c-0.3,0-0.5,0.2-0.7,0.4c-0.3,0.4-0.3,1.1,0.2,1.4c5.8,4.3,12.7,6.6,20,6.6
	c6.6,0,13.1-1.9,18-5.2l0.3-0.2v5.6C53.1,69.1,53.6,69.6,54.1,69.6z"/>
<path d="M1,55.1h7.6c0.4,0,0.7-0.2,0.9-0.6c0.2-0.4,0.1-0.8-0.1-1.1c-3.9-4.6-6.2-11.6-6.2-18.6C3.2,28,5.3,21.5,9.4,16
	c0.3-0.4,0.2-1.1-0.2-1.4c-0.2-0.2-0.5-0.2-0.7-0.2c-0.3,0-0.5,0.2-0.7,0.4c-4.3,5.8-6.6,12.7-6.6,20c0,6.6,1.9,13.1,5.2,18l0.2,0.3
	H1c-0.6,0-1,0.5-1,1S0.5,55.1,1,55.1z"/>
<path class="st0" d="M26.6,34.8c0,0.6,0.5,1,1,1h7.3c0.5,0,0.9-0.4,0.9-0.9v-0.1V22.7c0-0.6-0.5-1-1-1c-0.6,0-1,0.5-1,1v11.1h-6.3
	C27,33.8,26.6,34.2,26.6,34.8z"/>
<path class="st0" d="M34.8,9.7C20.9,9.7,9.7,20.9,9.7,34.8s11.2,25.1,25.1,25.1s25.1-11.3,25.1-25.1S48.7,9.7,34.8,9.7z M34.8,57.9
	c-12.8,0-23.1-10.4-23.1-23.1S22,11.7,34.8,11.7s23.1,10.4,23.1,23.1S47.6,57.9,34.8,57.9z"/>
<path class="st0" d="M17.9,33.8h-2.4c-0.6,0-1,0.5-1,1s0.5,1,1,1h2.4c0.6,0,1-0.5,1-1S18.5,33.8,17.9,33.8z"/>
<path class="st0" d="M54.1,33.8h-2.4c-0.6,0-1,0.5-1,1s0.5,1,1,1h2.4c0.6,0,1-0.5,1-1S54.7,33.8,54.1,33.8z"/>
<path class="st0" d="M34.8,50.7c-0.6,0-1,0.5-1,1v2.4c0,0.6,0.5,1,1,1s1-0.5,1-1v-2.4C35.8,51.1,35.4,50.7,34.8,50.7z"/>
<path class="st0" d="M34.8,14.5c-0.6,0-1,0.5-1,1v2.4c0,0.6,0.5,1,1,1s1-0.5,1-1v-2.4C35.8,14.9,35.4,14.5,34.8,14.5z"/>
<path class="st0" d="M23.4,46.2c-0.4-0.4-1-0.4-1.4,0l-1.6,1.6c-0.2,0.2-0.3,0.4-0.3,0.7s0.1,0.5,0.3,0.7c0.4,0.4,1,0.4,1.4,0
	l1.6-1.6C23.8,47.2,23.8,46.6,23.4,46.2z"/>
<path class="st0" d="M49.2,20.4c-0.4-0.4-1-0.4-1.4,0L46.2,22c-0.2,0.2-0.3,0.4-0.3,0.7c0,0.3,0.1,0.5,0.3,0.7c0.4,0.4,1,0.4,1.4,0
	l1.6-1.6C49.6,21.5,49.6,20.8,49.2,20.4z"/>
<path class="st0" d="M49.2,47.7l-1.6-1.6c-0.2-0.2-0.5-0.3-0.7-0.3c-0.3,0-0.5,0.1-0.7,0.3s-0.3,0.4-0.3,0.7s0.1,0.5,0.3,0.7
	l1.6,1.6c0.4,0.4,1,0.4,1.4,0C49.6,48.8,49.6,48.1,49.2,47.7z"/>
<path class="st0" d="M21.9,20.4c-0.2-0.2-0.4-0.3-0.7-0.3c-0.3,0-0.5,0.1-0.7,0.3c-0.2,0.2-0.3,0.4-0.3,0.7s0.1,0.5,0.3,0.7l1.6,1.6
	c0.4,0.4,1,0.4,1.4,0c0.2-0.2,0.3-0.4,0.3-0.7c0-0.3-0.1-0.5-0.3-0.7L21.9,20.4z"/>
</svg>
