<?xml version="1.0" encoding="utf-8"?>
<!-- Generator: Adobe Illustrator 23.0.1, SVG Export Plug-In . SVG Version: 6.00 Build 0)  -->
<svg version="1.1" id="Слой_1" xmlns="http://www.w3.org/2000/svg" xmlns:xlink="http://www.w3.org/1999/xlink" x="0px" y="0px"
	 viewBox="0 0 70 70" style="enable-background:new 0 0 70 70;" xml:space="preserve">
<style type="text/css">
	.st0{fill:#FF5555;}
</style>
<path d="M69.8,38.5v-7c0-0.4-0.3-0.8-0.7-1l-4.3-1.2l0-0.1c-0.3-1.4-0.6-2.8-1.1-4.1l0-0.1l3.1-3.2c0.3-0.3,0.4-0.7,0.2-1.1
	c-1-2.2-2.2-4.3-3.6-6.2c-0.2-0.3-0.7-0.5-1.1-0.4L58,15.2l-0.1-0.1c-0.9-1.1-1.9-2.1-3-3L54.8,12l1.1-4.3c0.1-0.4,0-0.8-0.4-1.1
	c-1.9-1.4-4-2.6-6.2-3.6c-0.4-0.2-0.8-0.1-1.1,0.2L45,6.4l-0.1,0c-1.3-0.5-2.7-0.8-4.1-1.1l-0.1,0l0-0.1l-1.2-4.2
	c-0.1-0.4-0.5-0.7-1-0.7h-7c-0.4,0-0.8,0.3-1,0.7l-1.2,4.3l-0.1,0c-1.4,0.3-2.8,0.6-4.1,1.1l-0.1,0l-3.2-3.1C21.5,3,21.1,2.9,20.7,3
	c-2.2,1-4.3,2.2-6.2,3.6c-0.3,0.2-0.5,0.7-0.4,1.1l1.1,4.3l-0.1,0.1c-1.1,0.9-2.1,2-3,3L12,15.2l-4.3-1.1c-0.4-0.1-0.8,0-1.1,0.4
	c-1.4,1.9-2.6,4-3.6,6.2c-0.2,0.4-0.1,0.8,0.2,1.1L6.4,25l0,0.1c-0.5,1.3-0.8,2.7-1.1,4.1l0,0.1l-4.3,1.2c-0.4,0.1-0.7,0.5-0.7,1v7
	c0,0.4,0.3,0.8,0.7,1l4.3,1.2l0,0.1c0.3,1.4,0.6,2.8,1.1,4.1l0,0.1l-0.1,0.1l-3.1,3.1C3,48.5,2.9,48.9,3,49.3c1,2.2,2.2,4.3,3.6,6.2
	c0.2,0.3,0.7,0.5,1.1,0.4l4.3-1.1l0.1,0.1c0.9,1.1,2,2.1,3,3l0.1,0.1l-1.1,4.3c-0.1,0.4,0,0.8,0.4,1.1c1.9,1.4,4,2.6,6.2,3.6
	c0.4,0.2,0.8,0.1,1.1-0.2l3.2-3.1l0.1,0c1.3,0.5,2.7,0.8,4.1,1.1l0.1,0l1.2,4.3c0.1,0.4,0.5,0.7,1,0.7h7c0.4,0,0.8-0.3,1-0.7
	l1.2-4.3l0.1,0c1.4-0.3,2.8-0.6,4.1-1.1l0.1,0l0.1,0.1l3.1,3.1c0.3,0.3,0.7,0.4,1.1,0.2c2.2-1,4.3-2.2,6.2-3.6
	c0.3-0.2,0.5-0.7,0.4-1.1L54.8,58l0.1-0.1c1.1-0.9,2.1-1.9,3-3l0.1-0.1l4.3,1.1c0.4,0.1,0.8,0,1.1-0.4c1.4-1.9,2.6-4,3.6-6.2
	c0.2-0.4,0.1-0.8-0.2-1.1L63.6,45l0-0.1c0.5-1.3,0.8-2.7,1.1-4.1l0-0.1l0.1,0l4.2-1.2C69.5,39.3,69.8,38.9,69.8,38.5z M67.8,37.7
	l-4.2,1.2c-0.4,0.1-0.7,0.4-0.7,0.8c-0.3,1.8-0.8,3.5-1.4,5.2c-0.1,0.4,0,0.8,0.2,1.1l3.1,3.2l0,0.1c-0.7,1.6-1.6,3.1-2.6,4.5
	l-0.1,0.1l-4.3-1.1c-0.4-0.1-0.8,0-1,0.3c-1.1,1.4-2.4,2.7-3.8,3.8c-0.3,0.2-0.4,0.7-0.3,1l1.1,4.3l-0.1,0.1c-1.4,1-2.9,1.8-4.5,2.6
	l-0.1,0L46,61.7c-0.3-0.3-0.7-0.4-1.1-0.2c-1.7,0.6-3.4,1.1-5.2,1.4c-0.4,0.1-0.7,0.3-0.8,0.7l-1.2,4.2h-5.5l-1.2-4.2
	c-0.1-0.4-0.4-0.7-0.8-0.7c-1.8-0.3-3.5-0.8-5.2-1.4c-0.4-0.1-0.8,0-1.1,0.2l-3.2,3.1l-0.1,0c-1.6-0.7-3.1-1.6-4.5-2.6l-0.1-0.1
	l1.1-4.3c0.1-0.4,0-0.8-0.3-1c-1.4-1.1-2.7-2.4-3.8-3.8c-0.2-0.3-0.7-0.4-1-0.3l-4.3,1.1l-0.1-0.1c-1-1.4-1.8-2.9-2.6-4.5l0-0.1
	L8.3,46c0.3-0.3,0.4-0.7,0.2-1.1c-0.6-1.7-1.1-3.4-1.4-5.2C7,39.3,6.7,39,6.4,38.9l-4.2-1.2v-5.5l4.2-1.2C6.7,31,7,30.7,7.1,30.3
	c0.3-1.8,0.8-3.5,1.4-5.2c0.1-0.4,0-0.8-0.2-1.1l-3.1-3.2l0-0.1c0.7-1.6,1.6-3.1,2.6-4.5l0.1-0.1l4.3,1.1c0.4,0.1,0.8,0,1-0.3
	c1.1-1.4,2.4-2.7,3.8-3.8c0.3-0.2,0.4-0.7,0.3-1l-1.1-4.3l0.1-0.1c1.4-1,2.9-1.8,4.5-2.6l0.1,0L24,8.3c0.3,0.3,0.7,0.4,1.1,0.2
	c1.7-0.6,3.4-1.1,5.2-1.4C30.7,7,31,6.7,31.1,6.4l1.2-4.2h5.5l1.2,4.2C39,6.7,39.3,7,39.7,7.1c1.8,0.3,3.5,0.8,5.2,1.4
	c0.4,0.1,0.8,0.1,1.1-0.2l3.2-3.1l0.1,0c1.6,0.7,3.1,1.6,4.5,2.6l0.1,0.1l-1.1,4.3c-0.1,0.4,0,0.8,0.3,1c1.4,1.1,2.7,2.4,3.8,3.8
	c0.2,0.3,0.6,0.4,1,0.3l4.3-1.1l0.1,0.1c1,1.4,1.8,2.9,2.6,4.5l0,0.1L61.7,24c-0.3,0.3-0.4,0.7-0.2,1.1c0.6,1.7,1.1,3.4,1.4,5.2
	c0.1,0.4,0.3,0.7,0.7,0.8l4.2,1.2V37.7z"/>
<path class="st0" d="M35,11.7c-12.8,0-23.3,10.4-23.3,23.3c0,12.8,10.5,23.3,23.3,23.3c12.8,0,23.3-10.4,23.3-23.3
	S47.8,11.7,35,11.7z M56.2,36.2c-0.3,4.8-2.2,9.4-5.4,13l-0.1,0.1l-2.4-2.4l-1.4,1.4l2.4,2.4l-0.1,0.1c-3.6,3.2-8.2,5.1-13,5.4
	l-0.2,0v-3.5h-2v3.5l-0.2,0c-4.8-0.3-9.4-2.2-13-5.4l-0.1-0.1l2.4-2.4l-1.4-1.4l-2.4,2.4l-0.1-0.1c-3.2-3.6-5.1-8.2-5.4-13l0-0.2
	h3.5v-2h-3.5l0-0.2c0.3-4.8,2.2-9.4,5.4-13l0.1-0.1l2.4,2.4l1.4-1.4l-2.4-2.4l0.1-0.1c3.6-3.2,8.2-5.1,13-5.4l0.2,0v3.5h2v-3.5
	l0.2,0c4.8,0.3,9.4,2.2,13,5.4l0.1,0.1l-2.4,2.4l1.4,1.4l2.4-2.4l0.1,0.1c3.2,3.6,5.1,8.2,5.4,13l0,0.2h-3.5v2h3.5L56.2,36.2z"/>
<path d="M45.4,25.4c-0.1-0.3-0.2-0.5-0.4-0.6c-0.3-0.2-0.8-0.2-1.1,0l-8.6,5.7l-0.1,0c-0.1,0-0.1,0-0.2,0c-2.5,0-4.5,2-4.5,4.5
	s2,4.5,4.5,4.5c2.5,0,4.5-2,4.5-4.5c0-0.1,0-0.1,0-0.2l0-0.1l0,0l5.7-8.5C45.4,26,45.4,25.7,45.4,25.4z M37.6,33.9
	c-0.1,0.2-0.2,0.5-0.2,0.7c0,0.1,0,0.2,0,0.3c0,1.4-1.1,2.5-2.5,2.5c-1.4,0-2.5-1.1-2.5-2.5c0-1.4,1.1-2.5,2.5-2.5
	c0.1,0,0.3,0,0.4,0c0.2,0,0.5,0,0.7-0.2l4.7-3.1L37.6,33.9z"/>
</svg>
