<?xml version="1.0" encoding="utf-8"?>
<!-- Generator: Adobe Illustrator 23.0.1, SVG Export Plug-In . SVG Version: 6.00 Build 0)  -->
<svg version="1.1" id="Слой_1" xmlns="http://www.w3.org/2000/svg" xmlns:xlink="http://www.w3.org/1999/xlink" x="0px" y="0px"
	 viewBox="0 0 70 70" style="enable-background:new 0 0 70 70;" xml:space="preserve">
<style type="text/css">
	.st0{fill:#FF5555;}
</style>
<g>
	<path d="M58.8,37.8c0-0.6-0.5-1.1-1.1-1.1c-0.7,0-1.1,0.6-1.1,1.1c0,0.6-0.6,1.2-1.2,1.2c-0.6,0-1.2-0.6-1.2-1.2
		c0-0.7-0.6-1.1-1.1-1.1c-0.6,0-1.1,0.5-1.1,1.1c0,1.8,1.6,3.4,3.4,3.4C57.2,41.2,58.8,39.6,58.8,37.8z"/>
	<path class="st0" d="M31.9,21.8c0.4,0,0.6-0.3,0.6-0.5v-0.5c2.1-0.4,3.3-1.7,3.3-3.8c0-2.4-1.6-3.2-3.3-3.9V9.7
		c0.7,0.1,1.1,0.3,1.4,0.5c0.2,0.1,0.4,0.2,0.7,0.2c0.6,0,0.9-0.8,0.9-1.1c0-1-1.7-1.4-2.9-1.4V7.5l0,0c-0.1-0.4-0.4-0.6-0.7-0.6
		c-0.4,0-0.6,0.3-0.6,0.5v0.5c-1.1,0.1-3.4,0.8-3.4,3.4c0,2.3,1.8,3,3.3,3.5l0.1,0v4c-1-0.1-1.6-0.6-2-1c-0.3-0.2-0.5-0.4-0.8-0.4
		c-0.5,0-0.9,0.7-0.9,1.1c0,1,1.6,2.2,3.7,2.2v0.5C31.3,21.5,31.5,21.8,31.9,21.8z M29.9,11.1c0-0.8,0.5-1.3,1.5-1.4v3
		C30.4,12.4,29.9,12.1,29.9,11.1z M32.4,18.9v-3.5c0.8,0.4,1.4,0.9,1.4,1.8C33.8,18.1,33.4,18.7,32.4,18.9z"/>
	<path d="M67.2,36.9l-2.8-1c-0.4-0.1-0.6-0.4-0.7-0.7c-0.6-1.9-1.5-3.7-2.7-5.4c-0.5-0.7-1.1-1.5-1.8-2.1c0.5-2.3,0.7-4.2,0.6-5.8
		c0-2.5-0.6-4.1-1.6-4.8l0,0c-0.6-0.3-2.3-1.2-11.4,3c-0.2,0.1-0.4,0.2-0.6,0.4l-1,2l0,0c-0.5,2.5-0.5,4.5,0.1,6.3
		c0.5,1.7,1.4,3,2.7,3.9c1.4,1,3.3,1.6,5.1,1.6c1.3,0,2.4-0.3,3.2-0.8c1-0.5,1.8-1.6,2.4-3.3c0.3,0.3,0.5,0.6,0.7,1
		c1.1,1.5,1.9,3.1,2.4,4.8c0.3,1,1.1,1.9,2.2,2.2l2.9,0.9c0.7,0.2,1.2,0.8,1.2,1.6v4.8c0,0.8-0.5,1.4-1.2,1.6l-4.6,1.5
		c-0.8,0.2-1.5,0.8-1.9,1.4c-1.8,3.1-4.6,5.6-8.5,7.7c-0.4,0.2-0.7,0.6-0.9,1.2l-1.5,7.8c0,0.1-0.2,0.3-0.3,0.3h-4.8
		c-0.1,0-0.3-0.2-0.3-0.3L43,62.4c-0.2-0.9-1-1.5-1.9-1.4c-2.3,0.3-4.4,0.5-6.3,0.5c-1.6,0-3.2-0.1-4.7-0.3
		c-0.8-0.1-1.7,0.5-1.9,1.4l-0.8,4.1c0,0.1-0.2,0.3-0.3,0.3h-4.8c-0.2,0-0.3-0.2-0.4-0.3l-1.4-7.4c-0.1-0.5-0.4-1-0.9-1.2
		c-6.4-3.5-9.8-9.2-9.8-16.7c0-3.8,0.8-7.1,2.5-10c1.4-2.5,3.7-4.7,6.6-6.5c0.6-0.3,0.8-1,0.4-1.5c-0.3-0.6-1-0.8-1.5-0.4
		c-5.5,3.1-8.9,8.2-9.8,14.5H7.8c0-0.8-0.1-1.4-0.4-1.9c-0.6-1.5-1.8-2.6-3.2-2.8c-1.1-0.1-2.1,0.3-2.8,1.2c-1,1.3-0.8,2.4-0.5,3
		c0.5,1.1,1.7,1.8,3.9,2.3c0,0,0,0,0,0c0,0,0,0.1-0.1,0.1c-1.4,1.7-2.9,2-3.7,2c-0.6,0-1.1,0.5-1.1,1.2c0,0.7,0.6,1.1,1.1,1.2h0.2
		c1.3,0,3.4-0.5,5.3-2.9c0.3-0.4,0.6-0.8,0.7-1.2c0.1,0,0.3,0,0.4,0.1c0,0.3,0,0.5,0,0.8c0,0.3-0.1,0.6-0.1,0.9c0,4.3,1,8.1,3,11.3
		c1.7,2.9,4.4,5.3,7.8,7.2l1.4,7.2c0.2,1.2,1.3,2.1,2.6,2.1h4.8c1.2,0,2.3-0.9,2.6-2.1l0.7-3.6c1.5,0.2,3,0.2,4.4,0.2
		c2.3,0,4.3-0.1,6.1-0.4l0.7,3.8c0.2,1.2,1.3,2.1,2.6,2.1H49c1.2,0,2.3-0.9,2.6-2.1l1.4-7.6c4-2.2,7.1-5,9.1-8.4
		c0.1-0.2,0.3-0.3,0.5-0.5l4.6-1.5c1.7-0.5,2.8-2,2.8-3.8v-4.8C70,38.9,68.9,37.4,67.2,36.9z M57.4,24.9C57,28.3,56,31,54.9,31.6
		c-1.1,0.7-3.9,0.8-6-0.7c-2.1-1.5-2.8-4.2-2-7.8c0.1-0.4,0.3-0.7,0.6-0.8c6.4-2.9,8.5-3.1,9.1-3.1h0.4
		C57.4,19.7,57.8,21.7,57.4,24.9z M3.7,35.1L3.7,35.1c0.6,0,1.1,0.5,1.5,1.3c0.1,0.2,0.2,0.5,0.2,0.8c-1.9-0.4-2.4-0.8-2.5-1.1l0,0
		C2.8,36,3,35.7,3.2,35.5l0,0C3.4,35.1,3.5,35.1,3.7,35.1z"/>
	<path class="st0" d="M24,26.2c-0.2,0-0.3,0.1-0.5,0.1c-0.4,0.1-0.9,0.2-1.2,0.4c-0.6,0.2-0.9,0.9-0.7,1.4c0.1,0.3,0.3,0.5,0.6,0.6
		c0.3,0.1,0.6,0.1,0.8,0c5.6-1.9,11.7-1.9,17.1,0l0,0c0,0,0.1,0,0.1,0c0.1,0,0.1,0.1,0.2,0.1c0.4,0,0.9-0.3,1.1-0.8
		c0.1-0.3,0.1-0.6,0-0.8c-0.1-0.3-0.4-0.5-0.6-0.6c-0.3-0.1-0.6-0.2-0.9-0.3c-0.3-0.1-0.5-0.2-0.7-0.2c0.9-0.6,1.7-1.3,2.3-1.9
		c0.8-0.8,1.4-1.5,1.8-2.2l0.8-1.9c0.8-1.8,1.2-3.6,1.2-5.2c0-0.6-0.4-1.1-1.1-1.2c-0.6,0-1.1,0.4-1.2,1.1c-0.1,2.9-1.3,5.7-3.5,7.8
		c-1.3,1.3-2.7,2.2-4.2,2.7c-2.7-0.4-5.5-0.4-8.2,0c-1.5-0.6-2.9-1.5-4.2-2.7c-2.2-2.2-3.5-5.2-3.5-8.3c0-3.2,1.2-6.1,3.5-8.3
		c2.2-2.2,5.2-3.5,8.3-3.5c3.2,0,6.1,1.2,8.3,3.5c0.9,0.9,1.6,1.9,2.2,3.1c0.3,0.5,1,0.8,1.5,0.5C43.6,9.5,43.9,9.3,44,9
		c0.1-0.3,0.1-0.6,0-0.9c-0.8-1.5-1.6-2.6-2.6-3.6c-2.7-2.7-6.2-4.1-9.9-4.1c-3.8,0-7.3,1.5-9.9,4.1c-2.7,2.7-4.1,6.2-4.1,9.9
		c0,3.8,1.5,7.3,4.1,9.9C22.4,25.1,23.3,25.7,24,26.2z"/>
</g>
</svg>
