<?xml version="1.0" encoding="utf-8"?>
<!-- Generator: Adobe Illustrator 23.0.1, SVG Export Plug-In . SVG Version: 6.00 Build 0)  -->
<svg version="1.1" id="Слой_1" xmlns="http://www.w3.org/2000/svg" xmlns:xlink="http://www.w3.org/1999/xlink" x="0px" y="0px"
	 viewBox="0 0 70 70" style="enable-background:new 0 0 70 70;" xml:space="preserve">
<style type="text/css">
	.st0{fill:#0071B3;}
</style>
<path class="st0" d="M64.6,46.8l3.3,3.3c0.4,0.4,1.1,0.4,1.4,0c0.4-0.4,0.4-1,0-1.4L66,45.4c-0.2-0.2-0.5-0.3-0.7-0.3
	c-0.3,0-0.5,0.1-0.7,0.3C64.2,45.8,64.2,46.4,64.6,46.8z"/>
<path class="st0" d="M61.2,43.4c0.4,0.4,1.1,0.4,1.4,0c0.4-0.4,0.4-1,0-1.4c-0.2-0.2-0.5-0.3-0.7-0.3s-0.5,0.1-0.7,0.3
	c-0.2,0.2-0.3,0.4-0.3,0.7C60.9,43,61,43.2,61.2,43.4z"/>
<path d="M64.2,27.7c-0.6-0.6-1.4-1.1-2.3-1.3l-0.4-0.1l0.2-0.4c0.3-0.6,0.4-1.3,0.4-2c0-1.3-0.5-2.5-1.4-3.4
	c-0.7-0.7-1.6-1.2-2.6-1.3l-0.4-0.1l0.1-0.4c0.6-1.7,0.1-3.6-1.2-4.9c-0.7-0.7-1.6-1.2-2.6-1.3l-0.4-0.1l0.1-0.4
	c0.2-0.5,0.2-1,0.2-1.5c0-1.3-0.5-2.5-1.4-3.4c-0.9-0.9-2.1-1.4-3.4-1.4c-0.8,0-1.6,0.2-2.3,0.6l-0.2,0.1l-0.3-0.3
	c-1.6-1.8-4-2.8-6.4-2.8H29.3c-0.6,0-1,0.5-1,1v1.8c0,0.7,0.1,1.3,0.3,2l0.3,0.7l-0.7-0.3c-0.6-0.2-1.2-0.4-1.8-0.4
	c-1.3,0-2.5,0.5-3.4,1.4c-1.3,1.3-1.7,3.2-1.2,4.9l0.1,0.4L21.5,15c-1,0.2-1.9,0.6-2.6,1.3c-0.9,0.9-1.4,2.1-1.4,3.4
	c0,0.5,0.1,1,0.2,1.5l0.1,0.4l-0.4,0.1c-1,0.2-1.9,0.6-2.6,1.3c-1.4,1.4-1.8,3.6-1,5.4l0.2,0.4l-0.4,0.1c-0.9,0.2-1.7,0.6-2.3,1.3
	c-0.9,0.9-1.4,2.1-1.4,3.4c0,1.3,0.5,2.5,1.4,3.4l3,3L0.6,53.6c-0.4,0.4-0.4,1,0,1.4c0.4,0.4,1.1,0.4,1.4,0l13.7-13.7l0.2,0.1
	c0.7,0.4,1.5,0.6,2.4,0.6c1.3,0,2.5-0.5,3.4-1.4c0.9-0.9,1.5-2.3,1.4-3.6l0-0.4l0.6,0c1.3,0,2.5-0.5,3.4-1.4
	c0.9-0.9,1.4-2.1,1.4-3.4l0-0.6l0.6,0c1.3,0,2.5-0.5,3.4-1.4c0.9-0.9,1.4-2.1,1.4-3.4l0-0.6l0.6,0c1.3,0,2.5-0.5,3.4-1.4
	c1.8-1.8,1.9-4.5,0.3-6.4L38,17.9l9.3-9.3c1-1,2.9-1,3.9,0c0.5,0.5,0.8,1.2,0.8,2c0,0.7-0.3,1.4-0.8,2L45,18.7
	c-0.2,0.2-0.3,0.4-0.3,0.7s0.1,0.5,0.3,0.7c0.4,0.4,1.1,0.4,1.4,0l4.9-4.9c0.5-0.5,1.2-0.8,2-0.8h0c0.7,0,1.4,0.3,2,0.8
	c0.5,0.5,0.8,1.2,0.8,2c0,0.7-0.3,1.4-0.8,2l-4.9,4.9c-0.4,0.4-0.4,1,0,1.4c0.4,0.4,1.1,0.4,1.4,0l3.5-3.5c1-1,2.9-1,3.9,0
	c0.5,0.5,0.8,1.2,0.8,2c0,0.7-0.3,1.4-0.8,2l-3.5,3.5c-0.4,0.4-0.4,1,0,1.4c0.4,0.4,1.1,0.4,1.4,0l1.7-1.7c0.5-0.5,1.2-0.8,2-0.8
	c0.7,0,1.4,0.3,2,0.8c0.5,0.5,0.8,1.2,0.8,2s-0.3,1.4-0.8,2L49.5,46.4c-3.4,3.4-7.9,5.4-12.7,5.5c-0.3,0-0.5,0.1-0.7,0.3L23.9,64.5
	c-0.2,0.2-0.3,0.4-0.3,0.7s0.1,0.5,0.3,0.7c0.4,0.4,1.1,0.4,1.4,0l9.2-9.2l0.2,0.2c2.2,1.4,4.8,2.1,7.5,1.9l0.2,0l7.2,7.2
	c0.4,0.4,1.1,0.4,1.4,0c0.2-0.2,0.3-0.4,0.3-0.7s-0.1-0.5-0.3-0.7L43.5,57c-0.2-0.2-0.5-0.3-0.8-0.3l-0.4,0
	c-2.1,0.2-4.1-0.3-5.9-1.3L36,55.2l1.3-1.3l0.1,0c5.1-0.3,9.9-2.5,13.5-6.1l13.3-13.3C66.1,32.7,66.1,29.6,64.2,27.7z M20.4,39.2
	c-0.5,0.5-1.2,0.8-2,0.8c-0.7,0-1.4-0.3-2-0.8l-3.7-3.7c-1.1-1.1-1.1-2.8,0-3.9c1-1,2.9-1,3.9,0l3.7,3.7
	C21.5,36.4,21.5,38.1,20.4,39.2z M25.8,33.9c-0.5,0.5-1.2,0.8-2,0.8c-0.7,0-1.4-0.3-2-0.8l-5.5-5.5c-0.5-0.5-0.8-1.2-0.8-2
	s0.3-1.4,0.8-2c1-1,2.9-1,3.9,0l5.5,5.5c0.5,0.5,0.8,1.2,0.8,2C26.6,32.7,26.3,33.3,25.8,33.9z M31.1,28.5c-0.5,0.5-1.2,0.8-2,0.8
	c-0.7,0-1.4-0.3-2-0.8l-6.9-6.9c-0.5-0.5-0.8-1.2-0.8-2c0-0.7,0.3-1.4,0.8-2c1-1,2.9-1,3.9,0l6.9,6.9c0.5,0.5,0.8,1.2,0.8,2
	S31.6,28,31.1,28.5z M36.5,23.2c-0.5,0.5-1.2,0.8-2,0.8s-1.4-0.3-2-0.8L24.3,15c-1.1-1.1-1.1-2.8,0-3.9c1-1,2.9-1,3.9,0l8.2,8.2
	c0.5,0.5,0.8,1.2,0.8,2S37,22.6,36.5,23.2z M45,8.1l-8.4,8.4l-4.8-4.8l1.2,0.2c0.4,0.1,0.8,0.1,1.2,0.1l3.8,0c0.3,0,0.5-0.1,0.7-0.3
	c0.2-0.2,0.3-0.4,0.3-0.7c0-0.6-0.5-1-1-1l-3.8,0c-1,0-2-0.4-2.7-1.1c-0.7-0.7-1.1-1.7-1.1-2.7V5.4H40c1.9,0,3.6,0.8,4.9,2.1
	l0.2,0.2L45,8.1z"/>
</svg>
