<?xml version="1.0" encoding="utf-8"?>
<!-- Generator: Adobe Illustrator 23.0.1, SVG Export Plug-In . SVG Version: 6.00 Build 0)  -->
<svg version="1.1" id="Слой_1" xmlns="http://www.w3.org/2000/svg" xmlns:xlink="http://www.w3.org/1999/xlink" x="0px" y="0px"
	 viewBox="0 0 70 70" style="enable-background:new 0 0 70 70;" xml:space="preserve">
<style type="text/css">
	.st0{fill:#0071B3;}
</style>
<path d="M41.2,60.6c2.1,0,4-0.9,5.4-2.4c0.9-1,1.5-2.3,1.7-3.7l0-0.3l0.3,0c3.6,0.3,6.9-1.7,8.4-5c1.1-2.5,0.9-5.1-0.5-7.4l-0.2-0.3
	l0.3-0.2c2.5-1.7,3.9-4.5,3.9-7.5c0-3.4-1.9-6.5-4.9-8.1l-0.2-0.1l0-0.3c0.4-2.1-0.1-4.2-1.4-6c-1.3-1.8-3.2-3.1-5.4-3.4l-0.3,0
	l0-0.3c-0.1-1.5-0.8-2.9-1.8-4c-1.4-1.5-3.3-2.4-5.4-2.4c-2.4,0-4.6,1.1-5.9,3L35,12.8l-0.3-0.4c-1.4-1.9-3.6-3-5.9-3
	c-2.1,0-4,0.9-5.4,2.4c-1,1.1-1.7,2.5-1.8,4l0,0.3l-0.3,0c-2.2,0.4-4.1,1.6-5.4,3.4c-1.2,1.8-1.7,3.9-1.4,6l0,0.3l-0.2,0.1
	c-3,1.6-4.9,4.7-4.9,8.1c0,3,1.4,5.7,3.9,7.5l0.3,0.2l-0.2,0.3c-1.4,2.2-1.6,4.9-0.5,7.4c1.4,3.3,4.8,5.3,8.4,5l0.3,0l0,0.3
	c0.2,1.4,0.8,2.6,1.7,3.7c1.4,1.5,3.3,2.4,5.4,2.4c2.4,0,4.6-1.1,5.9-3l0.3-0.4l0.3,0.4C36.6,59.5,38.9,60.6,41.2,60.6z M36,43.8
	c0-2.7,1.4-4,2.8-4.3c1.7-0.4,3.4,0.4,4.4,2.2c0.3,0.5,0.9,0.7,1.4,0.4c0.5-0.3,0.7-0.9,0.4-1.4c-1.5-2.5-4.2-3.8-6.7-3.1
	c-0.6,0.2-1.2,0.4-1.7,0.8L36,38.6v-9.9l0.4,0c3,0.3,4,1.4,5,2.7c0.9,1.1,1.9,2.4,4.1,3c0.5,0.2,1.1-0.1,1.3-0.7
	c0.2-0.5-0.1-1.1-0.7-1.3c-1.6-0.5-2.3-1.4-3.1-2.4c-1.3-1.6-2.6-3.2-6.7-3.5l-0.3,0V16.4c0-2.8,2.3-5,5.2-5c1.5,0,2.9,0.6,3.9,1.7
	c0.7,0.7,1.1,1.6,1.2,2.5l0.1,0.3L46.1,16c-2.7,0.4-3.6,2.1-4.3,3.3c-0.6,1.1-0.9,1.5-1.8,1.5c-0.6,0-1,0.5-1,1s0.5,1,1,1
	c2.2,0,3-1.4,3.6-2.6c0.7-1.3,1.3-2.4,3.9-2.4c2.1,0.1,3.9,1,5.1,2.7c1.1,1.6,1.4,3.5,0.8,5.3c-0.2,0.5,0.1,1.1,0.6,1.3
	c2.9,1.1,4.7,3.7,4.7,6.7c0,2.8-1.6,5.2-4.1,6.4c-0.3,0.1-0.5,0.4-0.6,0.7c-0.1,0.3,0,0.6,0.3,0.9c1.7,1.8,2.1,4.2,1.1,6.4
	c-1.3,2.9-4.4,4.4-7.5,3.6l-0.1,0c-2.1-0.5-2.4-1.5-2.9-2.8c-0.5-1.2-1-2.7-3.4-3.3c-0.3-0.1-0.5,0-0.8,0.1
	c-0.2,0.1-0.4,0.4-0.5,0.6s0,0.5,0.1,0.8s0.4,0.4,0.6,0.5c1.3,0.4,1.6,1,2,2.1c0.5,1.2,1.1,2.8,3.4,3.7l0.2,0.1l0,0.3
	c-0.1,1.1-0.5,2-1.3,2.9c-1,1.1-2.4,1.7-3.9,1.7c-2.9,0-5.2-2.3-5.2-5V43.8z M34,35.3l-0.4,0c-3.4-0.3-4.3-1.9-5.3-3.8
	c-1-1.8-2.1-3.8-5.5-4.2c-0.6-0.1-1.1,0.3-1.1,0.9c0,0.3,0,0.5,0.2,0.7c0.2,0.2,0.4,0.3,0.7,0.4c2.4,0.2,3,1.5,3.9,3.1
	c0.3,0.6,0.6,1.2,1.1,1.8l0.2,0.2l-0.2,0.2c-0.8,0.8-1.9,1.5-3.1,2.2c-0.5,0.3-0.7,0.9-0.5,1.4c0.2,0.5,0.9,0.7,1.4,0.5
	c1.5-0.7,2.8-1.6,3.7-2.6l0.2-0.2l0.2,0.2c1.1,0.7,2.5,1.1,4.2,1.2l0.3,0v16.2c0,2.8-2.3,5-5.2,5c-1.5,0-2.9-0.6-3.9-1.7
	c-0.7-0.8-1.2-1.8-1.3-2.9l0-0.3l0.2-0.1c2.3-0.9,2.9-2.5,3.4-3.7c0.4-1.1,0.7-1.8,2-2.1c0.5-0.1,0.9-0.7,0.7-1.2
	c-0.1-0.3-0.2-0.5-0.5-0.6c-0.2-0.1-0.5-0.2-0.8-0.1c-2.3,0.6-2.9,2.1-3.4,3.3c-0.5,1.2-0.8,2.2-2.9,2.8l-0.1,0
	c-0.6,0.2-1.2,0.2-1.8,0.2c-2.5,0-4.7-1.5-5.7-3.8c-1-2.2-0.5-4.6,1.1-6.4c0.2-0.2,0.3-0.6,0.3-0.9c-0.1-0.3-0.3-0.6-0.6-0.7
	c-2.6-1.2-4.1-3.7-4.1-6.4c0-3,1.8-5.6,4.7-6.7c0.5-0.2,0.8-0.8,0.6-1.3c-0.6-1.8-0.3-3.8,0.8-5.3c1.2-1.7,3-2.6,5.1-2.7
	c2.5,0,3.2,1.1,3.9,2.4c0.6,1.2,1.4,2.6,3.6,2.6c0.6,0,1-0.5,1-1s-0.5-1-1-1c-0.9,0-1.2-0.4-1.8-1.5c-0.7-1.2-1.6-2.9-4.3-3.3
	L23.6,16l0.1-0.3c0.2-0.9,0.6-1.8,1.2-2.5c1-1.1,2.4-1.7,3.9-1.7c2.9,0,5.2,2.3,5.2,5V35.3z"/>
<path d="M50.7,34.1c0-0.6-0.5-1-1-1h0c-0.6,0-1,0.5-1,1s0.5,1,1,1C50.3,35.1,50.7,34.7,50.7,34.1z"/>
<path d="M21.3,38.1c-0.1,0-0.1,0-0.2,0c-0.6,0.1-0.9,0.7-0.8,1.2c0.1,0.5,0.7,0.9,1.2,0.8c0.5-0.1,0.9-0.7,0.8-1.2
	C22.2,38.4,21.7,38.1,21.3,38.1z"/>
<path class="st0" d="M35,0.4c-0.6,0-1,0.5-1,1v2.7c0,0.6,0.5,1,1,1c0.6,0,1-0.5,1-1V1.4C36,0.8,35.6,0.4,35,0.4z"/>
<path class="st0" d="M20.1,9.1c0.5-0.3,0.7-0.9,0.4-1.4l-1.4-2.4c-0.1-0.2-0.4-0.4-0.6-0.5c-0.1,0-0.2,0-0.3,0c-0.2,0-0.4,0-0.5,0.1
	c-0.2,0.1-0.4,0.4-0.5,0.6c-0.1,0.3,0,0.5,0.1,0.8l1.4,2.4C18.9,9.2,19.6,9.4,20.1,9.1z"/>
<path class="st0" d="M5.4,19.1l2.4,1.4c0.5,0.3,1.1,0.1,1.4-0.4c0.1-0.2,0.2-0.5,0.1-0.8C9.2,19,9,18.8,8.8,18.7l-2.4-1.4
	c-0.2-0.1-0.3-0.1-0.5-0.1c-0.1,0-0.2,0-0.3,0c-0.3,0.1-0.5,0.2-0.6,0.5s-0.2,0.5-0.1,0.8C5,18.7,5.1,18.9,5.4,19.1z"/>
<path class="st0" d="M4.1,34H1.4c-0.6,0-1,0.5-1,1c0,0.6,0.5,1,1,1h2.7c0.6,0,1-0.5,1-1C5.1,34.4,4.7,34,4.1,34z"/>
<path class="st0" d="M6.4,52.7l2.4-1.4c0.5-0.3,0.7-0.9,0.4-1.4c-0.2-0.3-0.5-0.5-0.9-0.5c-0.2,0-0.3,0-0.5,0.1l-2.4,1.4
	c-0.2,0.1-0.4,0.4-0.5,0.6c-0.1,0.3,0,0.5,0.1,0.8C5.3,52.8,5.9,53,6.4,52.7z"/>
<path class="st0" d="M20.1,60.9c-0.2-0.1-0.3-0.1-0.5-0.1c-0.4,0-0.7,0.2-0.9,0.5l-1.4,2.4c-0.1,0.2-0.2,0.5-0.1,0.8
	c0.1,0.3,0.2,0.5,0.5,0.6c0.5,0.3,1.1,0.1,1.4-0.4l1.4-2.4C20.7,61.8,20.5,61.2,20.1,60.9z"/>
<path class="st0" d="M35,64.9c-0.6,0-1,0.5-1,1v2.7c0,0.6,0.5,1,1,1c0.6,0,1-0.5,1-1v-2.7C36,65.3,35.6,64.9,35,64.9z"/>
<path class="st0" d="M52.8,64.4c0.1-0.3,0-0.5-0.1-0.8l-1.4-2.4c-0.1-0.2-0.4-0.4-0.6-0.5c-0.1,0-0.2,0-0.3,0c-0.2,0-0.3,0-0.5,0.1
	c-0.2,0.1-0.4,0.4-0.5,0.6c-0.1,0.3,0,0.5,0.1,0.8l1.4,2.4c0.3,0.5,0.9,0.6,1.4,0.4C52.6,64.9,52.7,64.7,52.8,64.4z"/>
<path class="st0" d="M61.3,51.3l2.4,1.4c0.5,0.3,1.1,0.1,1.4-0.4c0.1-0.2,0.2-0.5,0.1-0.8s-0.2-0.5-0.5-0.6l-2.4-1.4
	c-0.2-0.1-0.3-0.1-0.5-0.1c-0.1,0-0.2,0-0.3,0c-0.3,0.1-0.5,0.2-0.6,0.5c-0.1,0.2-0.2,0.5-0.1,0.8C60.8,51,61,51.2,61.3,51.3z"/>
<path class="st0" d="M68.6,34h-2.7c-0.6,0-1,0.5-1,1c0,0.6,0.5,1,1,1h2.7c0.6,0,1-0.5,1-1C69.7,34.4,69.2,34,68.6,34z"/>
<path class="st0" d="M65.1,18.4c0.1-0.3,0-0.5-0.1-0.8c-0.1-0.2-0.4-0.4-0.6-0.5c-0.1,0-0.2,0-0.3,0c-0.2,0-0.3,0-0.5,0.1l-2.4,1.4
	c-0.5,0.3-0.7,0.9-0.4,1.4c0.3,0.5,0.9,0.6,1.4,0.4l2.4-1.4C64.9,18.9,65,18.7,65.1,18.4z"/>
<path class="st0" d="M51.3,8.8l1.4-2.4c0.1-0.2,0.2-0.5,0.1-0.8c-0.1-0.3-0.2-0.5-0.5-0.6c-0.2-0.1-0.3-0.1-0.5-0.1
	c-0.1,0-0.2,0-0.3,0c-0.3,0.1-0.5,0.2-0.6,0.5l-1.4,2.4c-0.1,0.2-0.2,0.5-0.1,0.8c0.1,0.3,0.2,0.5,0.5,0.6
	C50.4,9.4,51.1,9.2,51.3,8.8z"/>
</svg>
