<svg version="1.1" xmlns="http://www.w3.org/2000/svg" width="448" height="448" viewBox="0 0 448 448">
<path fill="#ffffff" d="M342.125 272.709c0-50.75-49.291-68.25-90.708-77.583l-30.334-7c-22.167-5.25-38.792-9.041-38.792-25.958 0-15.459 16.333-22.458 42-22.458 45.791 0 46.667 33.541 74.958 33.541 18.959 0 30.334-14.875 30.334-31.792 0-33.541-55.709-55.416-110.834-55.416-50.458 0-109.083 21.875-109.083 81.083 0 49 32.667 66.5 75.25 76.709l42.584 10.5c25.958 6.416 42 9.334 42 28 0 14.875-16.625 26.25-42.292 26.25-53.958 0-56.875-44.917-88.083-44.917-20.417 0-29.458 14.583-29.458 30.625 0 35.875 54.834 65.042 120.458 65.042 54.834 0 112-27.416 112-86.625zM448 336c0 61.834-50.167 112-112 112-25.667 0-49.291-8.75-68.25-23.333-14 2.916-28.875 4.667-43.75 4.667-113.459 0-205.334-91.875-205.334-205.334 0-14.875 1.75-29.75 4.667-43.75-14.583-18.959-23.333-42.584-23.333-68.25 0-61.834 50.167-112 112-112 25.667 0 49.291 8.75 68.25 23.333 14-2.916 28.875-4.667 43.75-4.667 113.459 0 205.334 91.875 205.334 205.334 0 14.875-1.75 29.75-4.667 43.75 14.583 18.959 23.333 42.584 23.333 68.25z"></path>
</svg>
